<svg xmlns="http://www.w3.org/2000/svg" viewBox="120 340 930 185" preserveAspectRatio="xMidYMid meet">
<g>
<path d="M 833.00 395.00 L 786.00 395.00 L 786.00 365.00 L 932.60 365.00 L 933.72 368.25 C936.09,375.10 954.48,435.23 957.50,446.00 C961.00,458.49 966.47,475.13 968.01,478.01 C969.14,480.12 969.46,479.57 972.17,470.90 C979.63,447.02 995.61,394.59 1001.79,373.75 L 1004.38 365.00 L 1023.81 365.00 C1041.85,365.00 1043.19,365.12 1042.68,366.75 C1042.38,367.71 1039.88,375.02 1037.13,383.00 C1019.18,435.11 1013.79,450.63 1010.56,459.50 C1008.55,465.00 1005.61,473.33 1004.03,478.00 C1001.66,484.95 995.99,500.62 989.82,517.25 L 988.80 520.00 L 948.36 520.00 L 940.78 498.25 C930.20,467.89 920.91,441.36 916.54,429.00 C914.49,423.23 911.02,413.21 908.82,406.75 L 904.82 395.00 L 872.66 395.08 L 840.50 395.15 L 846.02 397.83 C849.06,399.30 855.02,402.07 859.27,403.98 L 867.00 407.47 L 867.00 520.00 L 833.00 520.00 ZM 290.50 517.33 C281.79,512.85 272.55,504.61 267.12,496.49 C256.09,479.99 254.27,461.04 261.61,439.10 L 264.09 431.70 L 261.36 428.85 C259.05,426.44 257.83,426.00 253.51,426.00 C247.78,426.00 246.00,424.81 246.00,421.00 C246.00,416.97 247.77,416.00 254.95,416.04 C260.72,416.08 264.03,416.82 270.12,419.42 C271.28,419.92 271.91,419.47 272.33,417.84 C273.07,415.01 271.19,412.84 265.92,410.46 C262.55,408.95 261.95,408.23 262.20,406.08 L 262.50 403.50 L 336.00 403.24 C403.29,403.00 409.60,403.12 410.71,404.63 C412.51,407.08 410.70,409.60 405.49,411.90 C401.58,413.63 401.00,414.28 401.00,416.94 C401.00,418.62 401.18,420.00 401.39,420.00 C401.61,420.00 403.74,419.11 406.14,418.02 C409.14,416.66 412.70,416.04 417.55,416.02 C425.08,416.00 427.00,416.94 427.00,420.63 C427.00,424.21 424.37,426.00 419.12,426.00 C415.21,426.00 413.89,426.50 411.64,428.85 L 408.91 431.70 L 411.38 439.10 C416.84,455.46 417.00,469.15 411.93,484.22 C407.83,496.39 397.86,508.09 385.06,515.75 L 377.97 520.00 L 295.50 519.91 ZM 262.31 395.37 C261.18,392.42 263.53,390.58 275.10,385.34 C288.45,379.29 302.03,374.78 314.20,372.35 L 322.91 370.61 L 323.50 360.50 L 350.00 359.94 L 350.00 370.79 L 356.75 371.96 C370.27,374.28 385.01,379.14 400.30,386.30 C410.24,390.96 411.07,391.56 410.80,393.93 L 410.50 396.50 L 336.72 396.76 C269.07,396.99 262.89,396.88 262.31,395.37 Z" fill="rgb(234,74,37)"/>
<path d="M 160.00 519.93 C151.34,517.53 142.78,513.21 137.17,508.41 C129.11,501.52 123.00,488.38 123.00,477.97 C123.00,472.36 123.06,472.24 126.12,471.62 C127.84,471.28 135.94,471.00 144.12,471.00 L 159.00 471.00 L 159.00 473.53 C159.00,476.64 161.48,482.75 163.79,485.36 C166.46,488.36 175.08,491.98 179.60,491.99 C188.14,492.01 195.99,487.42 199.09,480.62 C200.85,476.73 200.96,472.83 200.98,411.75 L 201.00 347.00 L 219.00 347.00 L 237.00 347.00 L 237.00 409.67 C237.00,450.69 236.62,474.61 235.90,478.92 C232.62,498.47 217.77,513.80 196.50,519.59 C193.20,520.49 185.32,521.40 179.00,521.61 C169.60,521.93 166.13,521.62 160.00,519.93 ZM 599.50 520.03 C581.02,515.11 568.51,505.19 560.40,489.00 C553.39,475.02 551.15,454.35 554.93,438.50 C561.07,412.73 576.11,396.91 600.18,390.89 C611.43,388.07 631.27,388.59 640.72,391.95 C659.54,398.64 673.88,414.62 679.08,434.70 C689.29,474.15 670.78,511.23 636.49,520.00 C626.16,522.64 609.38,522.66 599.50,520.03 ZM 627.50 491.65 C638.72,486.41 644.09,476.11 644.77,458.50 C645.39,442.29 642.12,431.19 634.46,423.53 C629.76,418.82 625.02,417.00 617.63,417.02 C609.76,417.05 604.57,419.41 599.36,425.33 C593.31,432.20 590.84,439.44 590.25,452.02 C589.68,464.40 590.92,471.52 595.13,479.95 C601.26,492.21 615.37,497.31 627.50,491.65 ZM 434.67 519.33 C434.30,518.97 434.00,480.11 434.00,432.97 L 434.00 347.28 L 444.89 346.77 C450.88,346.48 458.98,346.48 462.89,346.76 L 470.00 347.27 L 470.00 433.63 L 470.00 520.00 L 452.67 520.00 C443.13,520.00 435.03,519.70 434.67,519.33 ZM 497.00 433.50 L 497.00 347.00 L 514.50 347.00 L 532.00 347.00 L 532.00 433.50 L 532.00 520.00 L 514.50 520.00 L 497.00 520.00 L 497.00 433.50 ZM 710.00 469.00 L 710.00 418.00 L 701.00 418.00 L 692.00 418.00 L 692.00 404.54 L 692.00 391.08 L 700.75 390.79 L 709.50 390.50 L 710.05 378.50 C710.48,369.03 711.07,365.45 712.85,361.50 C715.47,355.69 720.82,349.81 726.50,346.52 C731.93,343.37 743.25,341.00 752.70,341.02 C760.09,341.04 773.39,342.50 774.96,343.47 C775.59,343.86 770.68,368.71 769.82,369.48 C769.64,369.64 766.67,369.31 763.21,368.74 C750.14,366.60 744.75,371.03 745.23,383.50 L 745.50 390.50 L 758.25 390.78 L 771.00 391.06 L 771.00 404.53 L 771.00 418.00 L 758.00 418.00 L 745.00 418.00 L 745.00 469.00 L 745.00 520.00 L 727.50 520.00 L 710.00 520.00 L 710.00 469.00 Z" fill="rgb(26,26,26)"/>
</g>
</svg>
